<svg width="1920" height="1080" viewBox="0 0 1920 1080" fill="none" xmlns="http://www.w3.org/2000/svg">
<mask id="mask0_1024_958" style="mask-type:alpha" maskUnits="userSpaceOnUse" x="0" y="0" width="1920" height="1080">
<rect width="1920" height="1080" fill="#404041"/>
</mask>
<g mask="url(#mask0_1024_958)">
<rect width="1920" height="1080" fill="#ECECEC"/>
<path fill-rule="evenodd" clip-rule="evenodd" d="M1202.79 381.788C1202.53 385.143 1201.5 387.884 1199.3 390.221C1196.92 392.745 1195.2 395.34 1196.27 399.1C1196.54 400.06 1195.91 401.78 1194.74 401.685C1193.58 402.166 1192.34 400.685 1192.1 399.894C1190.94 396.06 1191.55 392.397 1194.11 389.198C1194.91 388.191 1195.84 387.278 1196.66 386.289C1198.98 383.514 1199.17 379.158 1197.13 376.203C1195.35 373.63 1192.83 373.185 1190.92 375.58C1189.6 377.232 1187.83 384.1 1186.95 384.068C1185.43 384.854 1185.04 382.829 1184.71 381.968C1183.35 378.495 1186.21 372.777 1190.09 370.834C1193.59 369.078 1198.2 370.129 1200.31 373.664C1201.75 376.067 1202.86 378.542 1202.79 381.788Z" fill="#EAC11D"/>
<path fill-rule="evenodd" clip-rule="evenodd" d="M1134.6 452.181C1133.14 454.111 1131.98 455.652 1130.81 457.182C1129.89 458.395 1128.71 459.124 1127.29 458.15C1125.86 457.168 1126.14 455.783 1126.97 454.52C1128.06 452.836 1129.23 451.203 1130.52 449.329C1129.59 448.686 1128.51 448.221 1127.85 447.409C1127.14 446.53 1125.21 445.576 1126.35 444.268C1127.24 442.671 1128.46 443.647 1129.54 443.417C1129.89 443.342 1131.04 444.522 1131.54 444.607C1131.76 442.816 1130.03 439.229 1132.6 439.008C1133.79 438.909 1134.94 439.639 1135.45 444.06C1135.32 444.25 1137.9 441.121 1138.23 441.06C1139.36 440.854 1139.64 440.636 1140.5 441.104C1141.79 441.816 1141.65 443.293 1140.74 444.48C1139.77 445.755 1138.74 446.986 1137.6 448.393C1138.93 449.727 1140.22 451.009 1141.5 452.304C1142.76 453.588 1143.49 455.074 1141.89 456.476C1140.31 457.863 1138.96 456.972 1137.79 455.567C1136.88 454.465 1135.83 453.475 1134.6 452.181Z" fill="#EAC11D"/>
<path fill-rule="evenodd" clip-rule="evenodd" d="M1147.41 415.152C1146.23 414.19 1144.91 413.44 1144.07 412.327C1143.4 411.433 1142.73 409.812 1143.11 409.018C1143.83 407.506 1145.29 408.335 1146.44 408.967C1146.73 409.121 1147.03 409.224 1147.49 409.422C1147.73 407.387 1146.4 404.403 1149.41 404.017C1152.12 403.667 1151.34 408.765 1151.81 409.642C1153.68 408.193 1155.77 407.558 1156.48 408.363C1158.4 410.556 1155.59 411.991 1154.85 414.057C1155.63 414.528 1156.45 414.983 1157.23 415.51C1158.38 416.296 1159.22 417.283 1158.41 418.746C1157.57 420.256 1156.24 420.254 1154.86 419.589C1153.85 419.1 1152.9 418.479 1151.68 417.774C1150.72 419.029 1149.78 420.301 1148.79 421.534C1148.24 422.221 1147.73 423.126 1146.99 423.424C1146.16 423.757 1144.77 423.892 1144.24 423.42C1143.7 422.936 1143.52 421.412 1143.88 420.693C1144.84 418.775 1146.17 417.046 1147.41 415.152Z" fill="#EAC11D"/>
<path fill-rule="evenodd" clip-rule="evenodd" d="M1219.48 457.397C1220.77 457.725 1222.08 457.786 1223.05 458.396C1223.83 458.888 1225.24 459.472 1224.74 460.901C1224.19 462.449 1222.96 462.269 1222.06 462.293C1220.85 462.322 1219.62 461.693 1218.19 461.286C1217.86 462.216 1217.62 462.966 1217.33 463.698C1216.73 465.184 1215.94 466.771 1214.06 466.134C1212.2 465.504 1212.44 463.803 1212.92 462.235C1213.13 461.561 1213.31 460.88 1213.52 460.166C1211.97 459.399 1210.4 458.876 1209.16 457.914C1208.45 457.363 1207.36 456.637 1207.88 455.169C1208.82 455.024 1209.8 454.641 1210.69 454.795C1212.01 455.027 1213.26 455.642 1214.86 456.206C1215.32 454.502 1215.58 452.834 1216.24 451.345C1216.63 450.476 1216.69 448.579 1218.4 449.186C1220.38 449.447 1220.15 450.94 1220.21 451.864C1220.31 453.58 1219.79 455.333 1219.48 457.397Z" fill="#EAC11D"/>
<path fill-rule="evenodd" clip-rule="evenodd" d="M1188.07 453.318C1186.03 452.596 1184.18 452.043 1182.43 451.27C1181.92 451.039 1181.3 450.077 1181.42 449.653C1181.57 449.157 1182.47 448.578 1183.05 448.571C1184.4 448.557 1185.82 448.675 1187.1 449.085C1188.91 449.665 1189.64 449.025 1189.9 447.314C1190.03 446.441 1190.12 445.486 1190.55 444.753C1191.02 443.96 1190.84 442.896 1192.52 442.717C1193.84 443.182 1194 444.421 1194.04 445.31C1194.13 446.884 1193.67 448.485 1193.4 450.411C1194.99 450.786 1196.52 451.168 1198.06 451.499C1199.5 451.808 1200.72 452.599 1200.11 454.086C1199.8 454.833 1198.29 455.112 1197.28 455.518C1197.05 455.611 1193.93 455.013 1192.47 454.591C1191.84 455.443 1191.77 456.206 1190.99 457.927C1190.44 459.242 1189.64 460.266 1188.07 459.71C1186.49 459.15 1186.49 457.85 1186.95 456.494C1187.31 455.447 1187.68 454.411 1188.07 453.318Z" fill="#EAC11D"/>
<path fill-rule="evenodd" clip-rule="evenodd" d="M1184.54 410.453C1184.54 412.498 1183.02 414.261 1181.27 414.237C1179.54 414.21 1177.99 412.543 1178 410.71C1178.01 408.947 1179.63 407.413 1181.47 407.425C1183.2 407.439 1184.54 408.759 1184.54 410.453Z" fill="#EAC11D"/>
<path fill-rule="evenodd" clip-rule="evenodd" d="M1192.13 409.971C1192.11 408.17 1193.51 406.626 1195.22 406.577C1197.06 406.527 1198.37 407.736 1198.38 409.488C1198.4 411.354 1196.92 413.007 1195.15 413.098C1193.57 413.181 1192.16 411.724 1192.13 409.971Z" fill="#EAC11D"/>
<path d="M1090.41 403.315C1088.49 404.945 1086.11 406.034 1084.18 407.655C1080.37 410.853 1078.11 409.703 1076.18 405.529C1073.49 399.726 1069.54 394.711 1065.46 389.837C1063.7 387.74 1063.11 385.685 1063.7 382.884C1065.52 374.2 1065.42 374.041 1074.43 375.249C1081.47 376.193 1094.2 379.916 1096.17 387.993C1096.58 394.369 1094.95 399.466 1090.41 403.315ZM1078.84 433.35C1079.24 434.99 1079.49 436.692 1079.58 438.376C1080.02 445.722 1076.82 448.705 1069.74 447.262C1063.07 445.9 1056.89 443.117 1050.76 440.157C1048.45 439.04 1048.8 437.787 1049.17 435.667C1050.59 427.366 1055.81 424.034 1062.3 424.02C1075.84 421.215 1075.86 421.211 1078.84 433.35ZM1036.9 422.554C1024.98 425.555 1012.96 420.06 1009.66 412.884C1007.15 402.208 1010.85 396.669 1013.28 389.231C1013.66 388.098 1017.29 383.206 1018.2 382.419C1022.93 378.338 1038.56 375.116 1043.99 378.256C1053 383.454 1056.38 393.238 1055.24 401C1054.9 403.299 1052.7 410.961 1051.58 412.972C1049.14 417.341 1044.46 423.217 1036.9 422.554ZM1046.39 429.476C1045.45 432.832 1044.67 438.745 1041.7 437.365C1040.02 436.589 1034.11 432.485 1032.52 431.533C1033.53 428.289 1043.54 427.941 1046.39 429.476ZM1036.97 445.013C1034.57 449.761 1030.76 457.235 1027.05 461.108C1020.57 467.879 1015.08 463.792 1011.54 455.075C1010.42 452.346 1009.95 449.363 1009.18 446.491C1005.38 433.403 1005.53 433.346 1019.15 433.037C1026.74 432.865 1030.9 439.231 1037.04 441.779C1038.75 442.487 1037.49 443.983 1036.97 445.013ZM999.234 426.943C999.3 428.112 997.699 428.101 996.65 428.163C989.999 428.538 983.444 427.876 977.631 424.51C971.389 420.895 970.574 415.97 974.837 410.167C976.593 407.784 978.513 405.478 980.656 403.448C983.089 401.13 985.846 399.161 988.64 396.895C992.21 401.918 995.825 406.593 998.984 411.556C1002.12 416.476 998.964 421.794 999.234 426.943ZM1007.52 420.632C1009.77 422.752 1011.34 424.238 1013.18 425.981C1004.46 429.313 1002.71 431.562 1007.52 420.632ZM1002.52 403.146C994.233 392.429 992.192 394.245 1007.59 387.163C1005.87 392.592 1004.25 397.698 1002.52 403.146ZM1000.41 353.211C1007.37 353.027 1011.31 359.205 1017.22 361.237C1017.5 361.336 1017.75 361.898 1017.8 362.273C1018.11 364.433 1009.58 377.947 1007.35 378.917C1005.41 379.756 1003.43 380.518 1001.56 381.481C991.276 386.786 990.75 386.564 987.575 375.105C984.244 363.104 989.882 353.498 1000.41 353.211ZM1025.96 363.505C1028.42 362.639 1030.78 367.434 1032.83 369.909C1029.35 370.841 1024.57 372.874 1021.45 373.712C1021.36 370.482 1023.62 364.337 1025.96 363.505ZM1051.44 376.738C1053.65 375.755 1059.31 371.02 1060.33 373.878C1061.68 377.638 1058.94 384.06 1058.33 384.37C1054.52 381.343 1053.13 378.273 1051.44 376.738ZM1060.74 398.717C1061.71 399.656 1062.4 400.115 1062.8 400.754C1065.43 404.941 1071.15 409.262 1069.27 413.552C1067.66 417.202 1060.61 416.311 1055.23 417.671C1058.88 412.048 1059.39 407.538 1060.74 398.717ZM1031.5 355.889C1034.29 352.744 1036.88 349.429 1040.69 347.302C1050.66 341.74 1057.29 346.615 1058.54 358.223C1059.68 368.896 1055.6 370.104 1049.73 371.501C1042.83 371.949 1038.03 366.657 1031.75 360.201C1030.2 358.6 1030.17 357.393 1031.5 355.889ZM1097.05 376.068C1090.09 369.733 1081.37 366.795 1072.03 366.836C1067.02 366.863 1065.73 365.154 1066.61 360.621C1067.91 353.952 1065.72 348.16 1061.93 342.766C1055.87 334.13 1044.96 332.723 1037.17 339.851C1033.13 343.554 1029.13 347.384 1025.65 351.602C1023.42 354.3 1021.83 354.204 1019.46 352.229C1014.64 348.221 1008.86 346.252 1002.92 344.685C998.622 344.682 994.444 345.406 990.368 346.74C981.652 353.472 977.263 361.881 979.517 373.224C980.36 377.455 981.809 381.469 983.824 385.095C985.908 388.834 984.868 390.773 981.776 392.805C976.215 396.449 971.826 401.329 968.169 406.81C963.098 414.412 964.464 422.399 971.352 428.242C978.301 434.145 986.717 434.721 995.186 435.023C998.016 435.128 999.751 435.146 999.87 438.973C1000.06 445.125 1002.08 451.091 1004.31 456.769C1007.03 463.687 1009.91 470.692 1017.94 471.952C1019.75 472.313 1025.21 470.873 1028.03 468.121C1034.47 463.407 1039.37 457.328 1042.81 450.229C1044.68 446.377 1046.49 446.046 1050.03 448.016C1054.63 450.579 1059.62 452.354 1064.76 453.769C1082.01 458.52 1092.52 449.348 1087.02 432.346C1083.38 421.087 1084.42 415.415 1095.16 409.202C1107.39 402.123 1107.57 385.647 1097.05 376.068Z" fill="#EAC11D"/>
<path fill-rule="evenodd" clip-rule="evenodd" d="M1169.51 524.05C1175.54 521.156 1177.68 521.284 1180.95 521.361C1182.26 521.392 1183.25 522.201 1184.58 521.56C1185.88 518.969 1183.24 518.468 1182.06 517.795C1178.15 515.553 1172.44 519.267 1169.51 524.05ZM1209.82 696.044C1210.1 696.766 1210.37 697.485 1210.64 698.209C1214.82 697.145 1219.02 696.176 1223.13 694.904C1223.79 694.702 1224.51 693.003 1224.3 692.229C1224.09 691.431 1222.73 690.31 1221.98 690.385C1217.23 690.862 1212.83 692.198 1209.82 696.044ZM1209.15 680.06C1209.74 680.631 1210.31 681.203 1210.9 681.77C1212.88 681.288 1215.25 681.318 1216.77 680.199C1219.06 678.52 1225.15 680.788 1223.61 676.035C1222.11 671.446 1217.39 674.759 1214.36 675.778C1212.37 676.452 1209.08 676.824 1209.15 680.06ZM1224.96 703.997C1219.06 706.581 1213.99 708.798 1208.92 711.014C1208.99 711.399 1209.05 711.779 1209.12 712.162C1214.49 712.609 1219.86 713.055 1225.73 713.544C1225.45 710.112 1225.25 707.604 1224.96 703.997ZM1177.36 532.763C1175.51 537.282 1176.34 541.567 1177.04 544.392C1177.41 545.928 1178.54 548.965 1180.25 548.475C1182.52 547.94 1183.25 545.959 1183.99 544.353C1185.52 540.983 1185.78 537.491 1186.52 533.888C1186.76 532.731 1186.31 530.443 1185.06 529.823C1179.31 526.967 1169.03 530.509 1165.86 536.244C1164.28 541.126 1170.14 533.278 1177.36 532.763ZM1253.64 809.576C1254.34 809.705 1255.05 809.824 1255.76 809.953C1258.25 804.023 1262.69 798.11 1262.77 792.149C1262.86 784.36 1259.51 776.528 1257.49 768.076C1252.75 769.458 1248.39 770.729 1243.91 772.04C1247.27 785.001 1250.45 797.291 1253.64 809.576ZM1137.71 767.566C1130.65 791.098 1123.68 814.29 1116.72 837.488C1117.39 837.757 1118.06 838.022 1118.73 838.286C1131.57 817.09 1139.49 793.483 1151.46 771.256C1146 769.791 1141.7 768.637 1137.71 767.566ZM1163.97 614.392C1168.4 635.396 1181.57 650.757 1193 667.151L1224.18 661.447C1223.98 656.259 1223.73 650.204 1223.49 643.878C1198.22 644.572 1180.61 630.922 1163.97 614.392ZM1189.96 677.752C1188.79 677.847 1187.49 677.93 1186.21 678.055C1151.06 681.346 1133.64 654.722 1133.94 624.999C1133.97 622.339 1136.01 617.743 1137.74 617.432C1142.12 616.635 1141.61 621.304 1142.4 624.166C1144.58 632.11 1146.13 640.271 1148.93 647.985C1153.52 660.663 1167.98 669.429 1179.58 667.064C1177.1 663.396 1174.76 659.797 1172.28 656.304C1159.29 637.999 1151.29 617.924 1150.43 595.259C1150.39 594.173 1149.67 592.485 1148.84 592.16C1142.67 589.739 1136.4 587.585 1131.55 585.845C1128 590.248 1124.23 594.253 1121.23 598.766C1105.23 622.805 1101.49 648.747 1112.91 675.34C1125.09 703.691 1142.21 715.219 1173.9 708.717C1180.78 707.307 1187.63 705.758 1194.8 704.212L1189.96 677.752ZM1123.87 575.477C1122.07 574.979 1121.2 574.645 1120.31 574.498C1104.83 571.914 1083.11 585.816 1075.52 601.862C1068.37 616.988 1068.63 632.56 1071.27 648.183C1076.21 677.353 1088.53 703.691 1105.65 727.528C1115.51 741.262 1127 754.317 1144.33 758.843C1177.28 767.46 1210.6 769.101 1244.02 761.482C1249.14 760.317 1254.04 758.184 1259.04 756.501C1258.98 755.88 1258.92 755.266 1258.87 754.645C1255.29 753.996 1251.73 752.913 1248.14 752.768C1235.59 752.244 1223.03 752.019 1210.47 751.717C1194.19 751.323 1177.68 752.92 1161.84 748.089C1144.82 742.9 1132.05 732.702 1126.63 714.865C1126.15 713.281 1124.61 711.867 1123.25 710.735C1109.38 699.091 1100.52 684.164 1096.46 666.785C1089.4 636.595 1096.88 609.557 1116.06 585.53C1118.59 582.364 1121.03 579.128 1123.87 575.477ZM1285.04 846.969C1278.9 836.433 1282.7 827.866 1287.19 819.388C1287.89 818.061 1288.57 816.715 1289.35 815.44C1299.85 798.354 1308.12 780.463 1310.78 760.27C1313.41 740.3 1303.15 723.199 1284.19 717.029C1279.73 715.575 1275.2 714.292 1270.64 713.25C1259.34 710.673 1248.35 710.63 1238.15 717.39C1232.56 721.102 1226.52 722.832 1219.6 721.472C1210.27 719.642 1200.82 717.12 1191.45 717.205C1181.63 717.3 1171.9 720.743 1162.02 721.555C1154.72 722.155 1147.26 720.882 1139.43 720.424C1146.61 729.17 1154.81 736.735 1165.99 738.14C1181.17 740.049 1196.57 740.366 1211.89 741.094C1226.11 741.76 1240.39 741.537 1254.56 742.656C1275.92 744.347 1283.26 763.687 1280.02 778.484C1276.19 795.97 1269.47 812.116 1257.76 825.908C1255.64 828.401 1253.61 830.966 1251.54 833.494C1262.67 837.973 1273.07 842.151 1285.04 846.969ZM1161.15 577.766C1159.48 584.237 1159.39 590.043 1163.3 596.35C1172.61 611.398 1185.1 622.693 1201 629.892C1207.45 632.816 1214.88 633.578 1222.72 635.544C1222.77 629.212 1222.82 624.574 1222.82 619.94C1222.82 612.738 1225.4 607.078 1232.38 604.197C1242.41 600.06 1252.45 595.936 1262.57 592.009C1268.5 589.7 1274.55 587.606 1280.66 585.833C1282.26 585.369 1284.31 586.46 1286.16 586.835C1287.11 591.503 1284.45 590.346 1283.08 590.988C1273.6 595.436 1263.96 599.554 1254.4 603.834C1248.59 606.435 1242.83 609.15 1237.03 611.801C1233.36 613.48 1231.77 616.316 1231.95 620.343C1232.93 642.075 1233.82 663.811 1234.8 685.542C1235.13 692.791 1235.61 700.039 1236.06 707.972C1259.07 697.282 1281.21 686.994 1303.64 676.568C1305.78 681.708 1306.92 685.649 1299.92 687.676C1302.08 688.832 1303.55 689.27 1304.5 690.22C1305.56 691.292 1306.14 692.829 1306.93 694.165C1309.34 701.777 1303.16 696.43 1302.32 695.9C1292.62 689.78 1284.45 695.468 1275.97 698.929C1273.2 700.066 1270.46 701.26 1266 703.145C1269.32 703.852 1271.14 704.149 1272.91 704.628C1280.5 706.655 1288.19 708.395 1295.63 710.885C1306.34 714.473 1312.67 722.433 1316.72 732.811C1324.23 752.034 1322.27 770.869 1314.5 789.251C1309.63 800.769 1303.77 811.889 1297.95 822.97C1290.27 837.582 1291.79 840.571 1307.86 840.837C1309.52 840.864 1311.18 840.713 1313.44 840.615C1310.39 837.046 1307.15 834.284 1305.33 830.787C1303.95 828.135 1303.11 823.986 1304.21 821.462C1308.7 811.164 1313.95 801.191 1319.17 791.224C1319.85 789.919 1321.87 785.495 1323.33 784.598C1326 786.196 1325.15 792.365 1324.59 793.747C1321.82 800.712 1318.69 807.537 1315.46 814.3C1310.52 824.616 1311.06 827.217 1319.87 834.279C1323.17 836.924 1327.93 839.235 1326.63 844.326C1325.27 849.632 1319.83 848.783 1315.73 849.375C1312.07 849.907 1308.32 849.89 1304.57 850.118C1306.55 858.167 1303.96 860.895 1295.73 860.022C1286.14 859.001 1277.07 856.676 1268.32 852.267C1260.82 848.49 1252.59 846.178 1244.74 843.096C1235.93 839.63 1234.34 835.331 1240.65 828.431C1246.01 822.569 1246.9 816.842 1244.9 809.583C1241.68 797.859 1238.99 785.98 1236.19 774.603C1222.91 774.992 1210.23 775.783 1197.55 775.594C1186.7 775.439 1175.85 774.324 1165.03 773.265C1161.75 772.948 1160.07 773.47 1158.51 776.654C1149.21 795.718 1139.75 814.711 1130.02 833.56C1127.92 837.641 1125.17 841.975 1121.53 844.479C1118.64 846.474 1113.73 846.796 1110.19 845.909C1108.8 845.557 1107.47 839.572 1108.26 836.752C1112.94 820.144 1118.26 803.724 1123.34 787.228C1125.6 779.884 1127.8 772.518 1130.11 764.887C1125.97 761.808 1121.62 758.916 1117.66 755.576C1094.85 736.373 1081.82 710.802 1070.63 683.862C1063.01 665.518 1059.19 646.624 1059.09 626.887C1058.93 595.888 1082.24 568.717 1111.86 565.626C1116.22 565.172 1120.72 566.074 1125.32 565.973C1113.77 561.709 1113.15 546.896 1111.47 560.496C1110.03 560.844 1107.27 557.749 1105.94 555.695C1105.11 554.427 1105.83 552.141 1105.88 548.755C1103.67 551.161 1102.44 552.834 1100.88 554.102C1099.6 555.144 1098.29 559.83 1095.51 559.676C1089.79 559.365 1093.43 552.293 1093.94 551.503C1096.26 547.897 1099.26 544.726 1102.14 541.501C1103.99 539.428 1106.05 537.542 1108.02 535.573C1107.63 535.167 1107.24 534.765 1106.86 534.362C1103.34 535.569 1099.35 536.097 1096.46 538.16C1093.52 540.25 1091.7 543.893 1089.31 546.794C1088.14 548.232 1086.8 549.551 1085.55 550.922C1082.69 551.573 1082.3 547.795 1081.94 545.974C1080.8 540.283 1085.78 533.684 1093.47 530.439C1098.05 528.508 1101.96 526.359 1101.49 519.968C1095.23 523.606 1086.74 521.902 1082.41 529.409C1081.99 530.15 1079.67 530.661 1079 530.187C1077.99 529.486 1077.22 527.831 1077.16 526.539C1076.92 521.673 1081.5 516.211 1087.93 515.211C1093.66 514.321 1096.69 511.322 1099.37 506.618C1105.01 496.747 1109.96 492.263 1120.52 488.355C1123.04 483.818 1127.56 481.75 1130.25 482.257C1134.86 476.189 1142.56 477.813 1147.26 480.651C1152.1 477.755 1161.13 476.623 1167.62 481.106C1171.34 478.634 1179.59 481 1185.86 483.267C1195.59 486.772 1199.46 497.312 1194.64 506.122C1193.61 508.017 1193.96 511.019 1194.44 513.352C1196.99 525.468 1199.85 537.512 1202.34 549.633C1202.53 550.576 1200.97 552.51 1199.82 552.959C1197.62 553.82 1196.37 553.751 1193.79 554.223C1193.73 556.399 1192.97 558.086 1192.35 560.841C1191.26 563.06 1183.36 560.627 1179.13 558.712C1173.12 560.106 1189.7 567.468 1191.55 567.641C1189.27 578.184 1182.85 580.327 1161.15 577.766Z" fill="#EAC11D"/>
<path fill-rule="evenodd" clip-rule="evenodd" d="M1497.19 553.023C1495.06 553.678 1492.94 554.787 1490.77 554.919C1469.62 556.224 1448.46 557.457 1427.28 558.419C1425.34 558.51 1421.88 556.835 1421.64 555.522C1421.27 553.513 1422.48 550.436 1424.07 548.958C1436.03 537.915 1448.24 527.151 1460.37 516.296C1461.11 515.63 1461.86 514.963 1462.98 513.963C1444.93 508.808 1427.54 503.82 1410.12 498.877C1408.69 498.469 1406.83 498.824 1405.76 498.036C1403.88 496.647 1400.95 494.39 1401.19 492.967C1401.55 490.843 1403.97 488.011 1406.07 487.411C1418.58 483.818 1431.24 480.685 1443.89 477.582C1454.2 475.053 1464.57 472.78 1475.83 470.179C1466.14 461.126 1457.01 452.444 1447.73 443.933C1431.12 428.717 1414.43 413.601 1397.77 398.445C1396.98 397.721 1395.79 397.083 1395.54 396.199C1394.95 394.087 1393.91 391.347 1394.76 389.821C1395.6 388.329 1398.65 387.151 1400.57 387.352C1416.54 388.971 1432.49 390.873 1448.41 392.842C1454.36 393.581 1460.29 394.575 1466.18 395.713C1493.72 401.036 1521.25 406.457 1548.78 411.804C1549.97 412.035 1551.24 411.875 1551.7 411.886C1547.01 396.622 1542.42 381.51 1537.72 366.419C1535.11 358.023 1531.97 349.758 1529.75 341.258C1528.98 338.365 1528.31 332.456 1530.64 331.739C1535.36 330.291 1537.83 331.594 1540.03 333.313C1553.53 343.855 1566.78 354.719 1579.78 365.877C1594.89 378.861 1609.65 392.265 1624.95 405.831C1627.7 401.567 1630.24 397.181 1633.2 393.093C1646.4 374.863 1659.63 356.646 1673.1 338.631C1674.62 336.598 1677.88 335.868 1680.33 334.533C1683.33 335.808 1684.04 339.386 1684.01 341.788C1683.61 370.503 1682.85 399.209 1682.18 427.915C1682.15 429.144 1682.05 430.369 1681.95 432.36C1686.74 430.627 1690.91 429.126 1695.09 427.609C1713.61 420.891 1732.09 414.063 1750.69 407.584C1752.68 406.888 1756.92 407.563 1757.4 408.719C1758.36 411.036 1758.32 414.625 1757.11 416.816C1749.36 430.911 1741.17 444.768 1733.14 458.712C1732.74 459.408 1732.5 460.196 1731.82 461.785C1738.1 461.003 1743.69 460.022 1749.31 459.662C1762.55 458.822 1775.81 458.13 1789.06 457.796C1790.8 457.755 1794.12 460.231 1794.07 461.425C1793.98 463.48 1792.18 465.909 1790.41 467.306C1789.12 468.319 1786.73 467.997 1784.82 468.134C1767.54 469.438 1750.28 470.991 1732.97 471.815C1727.98 472.049 1721.31 471.835 1718.22 468.879C1713.59 464.437 1719.54 459.591 1721.87 455.336C1727.42 445.249 1733.33 435.354 1739.88 424.027C1736.48 424.801 1734.67 425.051 1732.97 425.618C1715.29 431.563 1697.62 437.56 1679.94 443.52C1672.61 445.993 1671.1 445.199 1671.2 437.416C1671.34 427.799 1672.3 418.194 1672.75 408.575C1673.58 390.859 1674.3 373.133 1675.14 353.911C1673.21 355.625 1672.39 356.13 1671.87 356.848C1658.57 375.013 1645.27 393.169 1632.06 411.397C1626.72 418.784 1623.58 419.006 1616.72 412.789C1594 392.182 1571.18 371.696 1548.36 351.197C1547.01 349.988 1545.42 349.044 1542.29 346.798C1544.12 352.772 1545.37 356.956 1546.69 361.116C1552.43 379.106 1558.15 397.09 1563.98 415.053C1565.11 418.531 1565.1 421.049 1560.64 421.318C1556.42 421.568 1552.08 422.502 1548.01 421.837C1525.18 418.084 1502.05 415.327 1479.72 409.504C1460.01 404.362 1440.17 402.285 1420.13 400.456C1419.13 400.369 1418.13 400.419 1415.61 400.382C1418.75 403.206 1420.92 405.055 1422.97 407.03C1443.83 427.09 1464.72 447.125 1485.47 467.309C1487.75 469.524 1494.21 470.524 1490.88 474.881C1488.47 478.053 1483.01 479.38 1478.64 480.478C1463.92 484.188 1449.07 487.409 1434.27 490.857C1433.3 491.083 1432.37 491.553 1429.99 492.44C1444.36 498.464 1457.55 503.369 1471.97 504.521C1474.8 504.747 1477.5 506.619 1480.26 507.732C1478.65 510.271 1477.53 513.389 1475.34 515.255C1462.5 526.224 1449.4 536.903 1436.02 547.986C1456.64 552.799 1477.28 545.802 1497.08 550.833C1497.11 551.564 1497.15 552.294 1497.19 553.023Z" fill="#EAC11D"/>
<path fill-rule="evenodd" clip-rule="evenodd" d="M1677.65 483.159C1667.03 484.621 1657.97 485.829 1648.93 487.122C1641.62 488.166 1638.7 485.259 1639.44 477.798C1640.48 467.202 1641.39 456.587 1642.5 444.507C1639.08 447.422 1636.35 449.5 1633.92 451.879C1628.86 456.803 1623.91 461.837 1619.02 466.928C1613.01 473.168 1611.07 473.294 1606.38 466.067C1602.55 460.175 1599.54 453.744 1596.14 447.567C1595.02 445.526 1593.83 443.532 1591.32 441.531C1590.55 447.054 1589.65 452.569 1589.05 458.108C1586.77 479.088 1585.83 479.098 1567.57 469.326C1550.17 460.004 1531.89 452.315 1514 443.91C1513.62 444.416 1513.25 444.921 1512.87 445.427C1521.6 455.83 1530.34 466.215 1539.03 476.644C1541.9 480.087 1545.02 483.411 1547.31 487.228C1548.41 489.076 1548.79 492.543 1547.76 494.152C1546.73 495.731 1543.44 496.708 1541.26 496.516C1535.16 495.988 1529.12 494.711 1522.31 494.993C1525.38 497.609 1528.7 499.985 1531.43 502.919C1533.13 504.74 1535.42 508.048 1534.78 509.537C1533.86 511.653 1530.68 513.399 1528.14 514.078C1522.19 515.686 1516.04 516.57 1508.14 518.101C1517.31 524.004 1527.39 526.136 1532.58 534.577C1532.3 535.302 1532.01 536.028 1531.73 536.753C1525.96 535.266 1520.09 534.068 1514.43 532.23C1507.34 529.918 1500.3 527.356 1493.48 524.347C1490.89 523.201 1488.98 520.511 1486.76 518.534C1486.29 515.096 1491.05 513.342 1493.77 512.45C1501.38 509.941 1509.29 508.345 1519.21 505.85C1513.04 501.719 1508.1 498.933 1503.84 495.345C1501.36 493.259 1498.32 489.8 1498.46 487.099C1498.68 482.461 1503.32 482.823 1507.07 483.054C1514.89 483.523 1522.73 483.899 1530.96 484.341C1522.34 473.722 1513.93 463.341 1505.51 452.972C1501.47 447.991 1497.03 443.271 1493.51 437.948C1491.76 435.29 1490.08 430.786 1491.18 428.428C1493.27 423.922 1497.91 426.15 1501.36 427.637C1515.69 433.82 1529.99 440.087 1544.2 446.539C1555.26 451.555 1566.18 456.881 1577.61 462.278C1579.17 451.768 1580.46 441.23 1582.47 430.827C1583.06 427.733 1583.33 423.754 1587.33 422.123C1590.07 423.779 1593.74 424.799 1595.37 427.212C1601.97 436.913 1607.93 447.042 1614.51 457.637C1622.26 450.267 1630.09 442.83 1637.89 435.376C1639.44 433.897 1640.69 431.952 1642.47 430.918C1644.49 429.759 1647.48 428.25 1649.08 428.991C1650.78 429.768 1652.35 433.061 1652.25 435.173C1651.67 447.755 1650.56 460.316 1649.68 472.885C1649.57 474.517 1649.72 476.177 1649.77 478.944C1662.61 476.544 1674.89 474.109 1687.22 472.065C1689.62 471.671 1692.73 470.464 1694.79 473.22C1694.3 475.769 1694.62 478.969 1693.19 480.74C1688.65 486.323 1683.44 491.37 1678 497.164C1683.57 498.528 1688.88 499.759 1694.16 501.147C1697.3 501.975 1701.24 503.065 1699.5 507.231C1698.85 508.759 1694.45 509.78 1692.1 509.315C1684.56 507.837 1677.1 505.814 1669.8 503.451C1667.5 502.697 1664.52 500.452 1664.12 498.441C1663.73 496.446 1665.76 493.474 1667.49 491.651C1670.22 488.773 1673.58 486.493 1677.65 483.159Z" fill="#EAC11D"/>
<path fill-rule="evenodd" clip-rule="evenodd" d="M1654.45 740.656C1645.9 735.732 1638.18 731.501 1630.69 726.902C1626.45 724.303 1620.24 721.539 1623.84 715.283C1627.3 709.284 1632.14 714.283 1635.95 716.186C1644.46 720.463 1652.88 724.977 1661.12 729.761C1668.72 734.17 1670.5 738.84 1666.88 746.8C1662.05 757.433 1656.57 767.783 1651.06 778.089C1648.79 782.348 1645.44 786.461 1639.94 783.372C1634.18 780.123 1635.97 775.429 1638.58 770.674C1643.86 761.059 1648.85 751.289 1654.45 740.656Z" fill="#EAC11D"/>
<path fill-rule="evenodd" clip-rule="evenodd" d="M1753.18 702.324C1746.22 699.043 1740.71 696.636 1735.38 693.865C1731.07 691.616 1726.57 689.404 1722.95 686.246C1720.98 684.519 1719.06 683.428 1719.63 678.054C1722.53 677.609 1725.57 676.397 1728.27 676.928C1731.34 677.524 1734.06 679.784 1737.01 681.133C1743.34 684.018 1749.75 686.745 1756.09 689.608C1765.66 693.924 1768.73 700.515 1764.21 709.947C1759.38 720.035 1753.72 729.775 1747.68 739.179C1746.33 741.287 1741.91 741.384 1738.89 742.411C1735.93 742.093 1735.54 735.424 1736.41 732.787C1738.15 727.573 1741.74 722.995 1744.49 718.108C1747.32 713.081 1750.06 707.998 1753.18 702.324Z" fill="#EAC11D"/>
<path fill-rule="evenodd" clip-rule="evenodd" d="M1702.19 723.421C1692.53 719.009 1684.16 715.155 1675.75 711.35C1671.97 709.642 1667.97 707.589 1670.05 702.713C1672.13 697.821 1676.46 699.266 1680.24 700.863C1689.61 704.836 1699.12 708.532 1708.26 712.999C1716.07 716.811 1717.74 722.603 1713.51 730.302C1708.84 738.812 1703.64 747.045 1698.51 755.296C1695.96 759.419 1692.29 762.173 1687.51 759.12C1682.63 755.991 1684.03 751.761 1686.7 747.65C1691.73 739.931 1696.63 732.129 1702.19 723.421Z" fill="#EAC11D"/>
<path fill-rule="evenodd" clip-rule="evenodd" d="M1257.89 369.984C1257.33 372.957 1256.48 375.823 1256.4 378.713C1256.37 379.844 1257.87 381.581 1259.05 382.026C1260.24 382.475 1262.3 382.101 1263.22 381.252C1263.9 380.624 1263.87 378.376 1263.28 377.361C1261.81 374.825 1259.84 372.581 1257.89 369.984ZM1263.93 361.904C1263.71 362.249 1263.48 362.597 1263.26 362.943C1266.33 365.945 1266.88 371.64 1272.8 371.533C1274.03 371.51 1276.27 370.15 1276.23 369.515C1276.14 367.952 1275.38 365.608 1274.21 365.076C1270.97 363.609 1267.38 362.91 1263.93 361.904ZM1261.91 347.241L1262.96 347.925C1265.46 345.84 1268.14 343.936 1270.39 341.606C1271.49 340.453 1272.07 338.547 1272.27 336.908C1272.33 336.373 1270.2 334.883 1269.43 335.099C1267.76 335.573 1265.61 336.51 1264.92 337.894C1263.48 340.793 1262.86 344.098 1261.91 347.241ZM1254.61 347.777C1255 347.725 1255.39 347.675 1255.78 347.623C1256.09 344.565 1256.16 341.463 1256.77 338.471C1257.29 335.966 1256.37 334.352 1254.27 333.849C1252.86 333.513 1250.38 333.827 1249.8 334.748C1248.92 336.143 1248.57 338.65 1249.25 340.093C1250.58 342.871 1252.77 345.242 1254.61 347.777ZM1252.45 365.564C1252.1 365.158 1251.74 364.756 1251.4 364.354C1248.12 366.485 1244.52 368.279 1241.72 370.918C1240.63 371.952 1240.43 375.861 1241.41 376.772C1243.59 378.811 1246.39 377.753 1247.87 375.145C1249.6 372.07 1250.94 368.767 1252.45 365.564ZM1246.62 351.589C1246.82 351.168 1247.02 350.744 1247.22 350.324C1245.59 347.644 1244.22 344.742 1242.22 342.372C1241.11 341.055 1238.94 339.97 1237.28 340.014C1236.09 340.041 1234.1 342.035 1233.99 343.287C1233.84 344.956 1234.7 347.733 1235.94 348.322C1239.27 349.899 1243.03 350.56 1246.62 351.589ZM1248.68 359.438C1248.46 358.908 1248.23 358.382 1248.01 357.856C1243.42 355.751 1238.46 355.847 1233.64 356.68C1231.1 357.118 1230.85 361.187 1233.02 363.081C1235.28 365.055 1237.84 365.566 1240.57 364.042C1243.29 362.531 1245.98 360.973 1248.68 359.438ZM1263.61 319.216C1279.4 320.067 1290.84 334.173 1293.29 348.58C1296.97 370.226 1284.28 388.876 1267.81 398.083C1259.9 402.507 1251.49 404.556 1242.85 406.28C1240.28 406.793 1239.36 405.483 1239.95 403.023C1240.56 400.52 1242.22 397.686 1241.53 395.643C1240.94 393.911 1237.64 393.107 1235.55 391.875C1216.58 380.729 1211.62 345.586 1231.6 328.258C1241.03 320.08 1251.37 316.67 1263.61 319.216Z" fill="#EAC11D"/>
<path fill-rule="evenodd" clip-rule="evenodd" d="M1347.46 584.423C1342.14 584.423 1337.05 583.928 1332.1 584.578C1328.05 585.108 1326.48 583.766 1326 580.123C1325.06 573.083 1324 566.05 1323.22 558.994C1322.9 556.052 1321.54 555.252 1318.85 555.577C1315.4 555.997 1311.92 556.155 1308.47 556.583C1301.72 557.414 1300.85 558.416 1299.35 565.583C1298.13 571.459 1296.61 577.272 1295.46 583.164C1294.73 586.926 1292.37 588.102 1289 587.951C1285.05 587.777 1285.94 584.665 1285.77 582.281C1285.18 573.76 1284.65 565.235 1284.04 556.714C1283.8 553.479 1284.54 552.192 1288.42 551.962C1300.53 551.245 1312.57 549.463 1324.67 548.695C1335.7 547.99 1346.79 547.864 1357.84 548.034C1359.45 548.058 1361.69 550.897 1362.44 552.885C1363.58 555.914 1363.67 559.335 1364.42 563.841C1375.31 561.94 1385.9 560.091 1397 558.155C1396.55 556.013 1396.21 554.393 1395.86 552.774C1394.93 548.386 1396.02 547.155 1400.59 546.977C1432.51 545.725 1464.47 545.017 1496.34 542.95C1518.37 541.524 1540.28 538.182 1562.25 535.747C1565.54 535.383 1568.91 534.888 1572.15 535.288C1573.45 535.45 1575.38 537.778 1575.49 539.24C1576.99 558.468 1578.17 577.72 1579.54 596.96C1579.82 601.042 1579.78 603.327 1580.06 607.417C1580.15 608.72 1580.12 611.856 1579.67 613.194C1577.72 615.063 1577.07 611.333 1576.79 610.161C1574.67 601.094 1572.97 591.927 1570.82 582.863C1568.97 575.051 1567.66 566.834 1561.65 560.859C1559.18 558.412 1555.95 555.751 1552.73 555.221C1538.67 552.916 1524.88 554.516 1514.03 564.475C1508.55 569.507 1505.44 570.565 1498.44 566.545C1487.2 560.087 1475.13 563.512 1463.97 568.81C1462.01 569.737 1460.89 572.287 1459.18 573.867C1458.04 574.924 1456.54 575.593 1455.21 576.437C1454.53 575.142 1453.19 573.788 1453.29 572.56C1453.7 567.939 1451.35 567.254 1447.55 567.67C1439.58 568.541 1431.6 569.242 1423.06 570.066C1424.29 579.806 1425.41 588.997 1426.63 598.171C1429.42 619.316 1432.16 640.465 1435.14 661.582C1435.96 667.351 1437.42 673.049 1438.94 678.683C1439.27 679.939 1441.2 681.815 1442.19 681.693C1452.55 680.449 1463.27 681.305 1474.25 676.632C1471.83 660.14 1469.27 643.775 1467.09 627.362C1465.87 618.187 1465.23 608.938 1464.47 599.712C1464.12 595.332 1466.64 593.016 1470.71 592.121C1474.9 591.198 1478.49 592.588 1480.58 596.089C1482.39 599.134 1483.89 602.685 1484.35 606.17C1486.51 622.785 1488.24 639.459 1490.2 656.109C1491 662.971 1491.98 669.81 1492.93 677.012C1505.12 675.27 1516.77 673.607 1529.38 671.805C1526.74 654.731 1524.15 637.768 1521.48 620.817C1519.86 610.522 1517.52 600.246 1520.65 589.848C1521.7 586.379 1523.47 583.35 1527.63 583.065C1531.98 582.768 1535.38 584.507 1537.47 588.371C1538.35 590.022 1539.12 591.848 1539.45 593.685C1541.11 602.86 1542.66 612.058 1544.15 621.26C1546.57 636.311 1548.91 651.373 1551.36 666.919C1555.37 666.369 1558.14 666.088 1560.87 665.601C1567.23 664.464 1573.56 663.201 1579.92 662.053C1580.82 661.89 1582.57 661.938 1582.61 662.168C1583.6 666.785 1584.68 671.421 1584.97 676.102C1585.02 677.004 1581.88 678.814 1580.08 679C1563.76 680.699 1547.42 682.291 1531.07 683.577C1523.39 684.183 1515.64 683.811 1507.95 684.31C1485.9 685.739 1463.87 687.399 1441.83 688.943C1429.71 689.79 1417.59 690.539 1405.47 691.441C1401.38 691.746 1397.33 692.554 1393.24 692.807C1391.55 692.91 1389.81 692.174 1388.1 691.818C1388.12 691.144 1388.12 690.471 1388.13 689.802C1391.98 688.761 1395.83 687.696 1399.68 686.674C1403.34 685.704 1406.97 684.567 1410.68 683.882C1414.75 683.134 1415.52 680.837 1415.03 677.127C1412.06 654.719 1409.27 632.28 1406.29 609.872C1404.95 599.854 1403.33 589.88 1401.81 579.89C1401.55 578.211 1401.13 576.552 1400.86 575.304C1390.12 576.061 1379.78 576.789 1369.44 577.514C1366.83 577.696 1366.06 578.919 1366.43 581.6C1368.65 598.033 1370.63 614.497 1372.87 630.93C1375.41 649.54 1378.15 668.131 1380.79 686.729C1381.2 689.616 1380.31 691.746 1377.26 692.507C1373.6 693.417 1369.96 694.577 1366.24 694.985C1365.19 695.1 1363.32 693.144 1362.83 691.778C1360.8 686.143 1359.35 680.303 1357.24 674.708C1356.69 673.267 1354.59 671.698 1353.03 671.489C1342.48 670.099 1338.76 667.105 1337.31 656.474C1335.37 642.385 1334.11 628.205 1332.44 614.073C1331.91 609.587 1334.08 608.114 1338.11 607.916C1341.1 607.77 1344.06 607.128 1347.05 607.017C1350.34 606.891 1351.04 605.18 1350.55 602.349C1349.51 596.433 1348.51 590.513 1347.46 584.423Z" fill="#EAC11D"/>
<path fill-rule="evenodd" clip-rule="evenodd" d="M1698.87 590.015C1692.66 593.959 1687.31 597.221 1682.17 600.805C1681.55 601.245 1681.51 603.89 1682.19 604.658C1692.6 616.561 1705.85 620.211 1721.09 617.388C1730.33 615.67 1738.67 612.264 1744.11 603.87C1744.64 603.038 1746.4 602.266 1747.22 602.551C1748.09 602.856 1748.94 604.404 1749.06 605.489C1750.19 615.856 1751.32 626.23 1752 636.636C1752.09 638.046 1749.83 640.659 1748.33 640.94C1741.39 642.239 1734.32 642.829 1727.33 643.835C1708.43 646.543 1689.55 649.358 1670.65 652.079C1668.39 652.403 1666.08 652.388 1663.38 652.558C1673.21 634.506 1668.56 616.489 1665.23 598.944C1661.25 577.886 1655.55 557.161 1650.73 536.258C1650.1 533.518 1648.82 532.39 1646.19 532.837C1637.36 534.326 1628.54 535.874 1619.3 537.47C1620.44 543.98 1621.3 549.852 1622.5 555.653C1626.03 572.802 1629.61 589.944 1633.37 607.045C1634.55 612.431 1636.91 617.594 1637.72 623.015C1638.83 630.392 1639.57 638.073 1630.91 642.322C1630.04 642.75 1629.58 644.674 1629.51 645.933C1629.45 647.117 1630.03 648.4 1630.56 649.533C1634.61 658.244 1633.86 657.983 1623.78 659.048C1618.92 659.555 1614.02 659.721 1609.15 660.097C1605.81 660.354 1604.12 658.731 1603.72 655.547C1603.26 651.782 1602.36 647.988 1602.56 644.251C1602.65 642.429 1604.43 639.835 1606.1 639.123C1610.28 637.341 1614.79 636.288 1619.24 635.23C1622.79 634.387 1624.29 632.819 1623.22 628.974C1621.12 621.391 1619.3 613.725 1617.13 605.145C1612.31 605.964 1607.69 606.586 1603.15 607.568C1598.01 608.681 1597.14 608.13 1596.42 602.856C1593.73 582.836 1590.86 562.832 1588.31 542.788C1587.58 536.983 1586.33 534.227 1595.34 533.451C1604.25 532.683 1612.95 529.927 1621.84 528.695C1638.87 526.331 1655.96 524.47 1673.02 522.316C1678.55 521.619 1684.06 520.665 1690.74 519.652C1689.48 521.315 1687.56 522.011 1686.81 522.53C1685.26 523.607 1685.04 524.712 1683.4 525.666C1667.13 535.134 1665.15 559.122 1680.46 570.232C1685.5 573.895 1692.71 574.711 1699.03 576.425C1704.2 577.827 1709.54 578.556 1714.76 579.759C1716.25 580.104 1717.83 580.805 1718.98 581.799C1722.15 584.551 1724.2 588.162 1722.69 592.323C1720.95 597.111 1716.16 597.76 1711.96 597.701C1706.79 597.633 1701.14 597.491 1698.87 590.015Z" fill="#EAC11D"/>
<path fill-rule="evenodd" clip-rule="evenodd" d="M1312.18 698.596C1308.09 698.596 1304 698.6 1299.9 698.596C1296.86 698.592 1295.6 697.329 1295.39 694.015C1294.12 674.771 1292.66 655.543 1291.1 636.319C1290.75 631.923 1289.79 627.576 1289.05 623.216C1288.43 619.538 1290.21 617.241 1293.54 616.647C1297.07 616.021 1297.58 619.039 1297.88 621.573C1298.73 628.471 1299.12 635.432 1300.22 642.278C1302.15 654.216 1303.88 666.242 1306.9 677.915C1308.16 682.778 1312.55 686.812 1315.45 691.263C1316.76 693.267 1317.92 695.357 1319.15 697.409C1316.9 698.177 1314.65 698.941 1312.41 699.705C1312.33 699.337 1312.26 698.965 1312.18 698.596Z" fill="#EAC11D"/>
<path fill-rule="evenodd" clip-rule="evenodd" d="M1643.45 513.58C1642.38 514.562 1641.09 516.681 1639.37 517.132C1632.98 518.795 1626.47 520.046 1619.95 521.08C1618.99 521.23 1617.02 519.536 1616.71 518.379C1614.88 511.541 1613.24 504.639 1612 497.678C1611.81 496.641 1613.87 494.427 1615.26 494.023C1621.61 492.174 1628.09 490.773 1634.52 489.216C1637.33 488.535 1639.15 489.422 1639.68 492.436C1640.86 499.108 1642.06 505.772 1643.45 513.58Z" fill="#EAC11D"/>
<path fill-rule="evenodd" clip-rule="evenodd" d="M1740.3 555.725C1740.25 562.56 1739.76 562.595 1733.71 560.216C1726.29 557.293 1718.6 555.044 1711.01 552.538C1709.21 551.944 1707.35 551.548 1705.56 550.966C1701.92 549.794 1698.45 547.901 1698.53 543.692C1698.61 539.352 1702.13 537.214 1705.94 536.073C1710.73 534.636 1715.17 535.171 1719.22 538.627C1724.75 543.355 1724.78 543.141 1730.62 538.687C1732.76 537.051 1735.33 535.966 1737.7 534.632C1738.17 537.182 1738.8 539.716 1739.09 542.286C1739.6 546.836 1739.92 551.409 1740.3 555.725Z" fill="#EAC11D"/>
<path fill-rule="evenodd" clip-rule="evenodd" d="M1719.92 515.38C1724.42 514.382 1728.93 513.388 1733.64 512.343C1734.78 518.101 1739 527.481 1736.25 525.533C1730.1 517.194 1725.31 519.486 1720.23 516.679C1720.13 516.247 1720.02 515.816 1719.92 515.38Z" fill="#EAC11D"/>
</g>
</svg>
