<svg width="213" height="32" viewBox="0 0 213 32" fill="none" xmlns="http://www.w3.org/2000/svg">
<g clip-path="url(#clip0_4640_5099)">
<path d="M41.8331 0H0V32H41.8331V0Z" fill="#7F69EB"/>
<path d="M69.9382 18.7371L67.1797 10.1184H65.2604L62.5034 18.734L59.6946 10.1184H57.4473L61.4843 21.88H63.4265L66.22 13.0294L69.0136 21.88H70.9558L74.9913 10.1184H72.7668L69.9382 18.7371Z" fill="#1E252F"/>
<path d="M85.4656 10.654C84.5487 10.123 83.5158 9.85754 82.367 9.85754C81.2181 9.85754 80.2066 10.1276 79.2896 10.6646C78.3727 11.2032 77.6449 11.9294 77.1079 12.8464C76.5693 13.7633 76.3008 14.81 76.3008 15.9893C76.3008 17.1687 76.5739 18.2229 77.1186 19.1536C77.6648 20.0843 78.3956 20.8151 79.311 21.3461C80.2279 21.877 81.2456 22.1425 82.3654 22.1425C83.4853 22.1425 84.4999 21.877 85.4092 21.3461C86.3185 20.8151 87.0493 20.0874 87.6016 19.1643C88.1539 18.2413 88.4301 17.1824 88.4301 15.9893C88.4301 14.7962 88.1646 13.742 87.6337 12.825C87.1027 11.9081 86.3795 11.1849 85.4626 10.654H85.4656ZM85.7601 18.1268C85.4184 18.7676 84.953 19.2696 84.3641 19.6327C83.7752 19.9958 83.11 20.1774 82.367 20.1774C81.6239 20.1774 80.9816 19.9958 80.3927 19.6327C79.8038 19.2696 79.3339 18.7676 78.986 18.1268C78.6366 17.486 78.4627 16.7735 78.4627 15.9878C78.4627 15.2021 78.6366 14.4972 78.986 13.8701C79.3354 13.2446 79.8038 12.7503 80.3927 12.3872C80.9816 12.024 81.6392 11.841 82.367 11.841C83.0947 11.841 83.7752 12.0225 84.3641 12.3872C84.953 12.7503 85.4184 13.2461 85.7601 13.8701C86.1019 14.4957 86.2727 15.2005 86.2727 15.9878C86.2727 16.7751 86.1019 17.486 85.7601 18.1268Z" fill="#1E252F"/>
<path d="M94.1068 10.48C93.6719 10.7303 93.3225 11.0827 93.0586 11.5343V10.12H91.0508V21.8816H93.1013V14.8771C93.1013 13.9312 93.3561 13.2049 93.8657 12.6954C94.3753 12.1858 95.0435 11.931 95.8735 11.931H96.8988V9.98877H96.1787C95.3639 9.98877 94.6728 10.152 94.1052 10.48H94.1068Z" fill="#1E252F"/>
<path d="M108.75 10.1185H106.153L100.742 15.6445V5.36133H98.6895V21.8801H100.742V18.3557L102.754 16.2411L106.655 21.8801H109.055L104.232 14.8542L108.75 10.1185Z" fill="#1E252F"/>
<path d="M114.539 7.58735H118.947V21.8801H121.107V7.58735H125.449V5.62378H114.539V7.58735Z" fill="#1E252F"/>
<path d="M129.291 10.12H127.24V21.8816H129.291V10.12Z" fill="#1E252F"/>
<path d="M129.291 5.62378H127.24V8.24188H129.291V5.62378Z" fill="#1E252F"/>
<path d="M147.304 10.4252C146.642 10.0468 145.903 9.85761 145.089 9.85761C144.201 9.85761 143.394 10.0941 142.666 10.5671C142.129 10.9164 141.708 11.3879 141.4 11.9783C141.108 11.4428 140.698 10.9897 140.167 10.6205C139.431 10.1109 138.606 9.85608 137.691 9.85608C136.89 9.85608 136.171 10.0529 135.53 10.445C135.068 10.7288 134.697 11.1087 134.418 11.5832V10.1185H132.41V21.8801H134.461V14.9199C134.461 14.2806 134.581 13.7314 134.821 13.2721C135.06 12.8129 135.388 12.462 135.803 12.2133C136.218 11.9661 136.687 11.8425 137.212 11.8425C137.736 11.8425 138.218 11.9661 138.618 12.2133C139.018 12.4604 139.335 12.8098 139.567 13.2614C139.799 13.713 139.917 14.2653 139.917 14.9199V21.8801H141.967V14.9199C141.967 14.2806 142.088 13.7314 142.327 13.2721C142.567 12.8129 142.895 12.462 143.31 12.2133C143.725 11.9661 144.193 11.8425 144.718 11.8425C145.243 11.8425 145.707 11.9661 146.114 12.2133C146.521 12.4604 146.842 12.8098 147.074 13.2614C147.306 13.713 147.423 14.2653 147.423 14.9199V21.8801H149.474V14.2638C149.474 13.4201 149.277 12.6634 148.885 11.9936C148.493 11.3253 147.965 10.8005 147.302 10.4221L147.304 10.4252Z" fill="#1E252F"/>
<path d="M154.385 5.62378H152.334V8.24188H154.385V5.62378Z" fill="#1E252F"/>
<path d="M154.385 10.12H152.334V21.8816H154.385V10.12Z" fill="#1E252F"/>
<path d="M162.982 15.3348L161.061 14.7672C160.827 14.694 160.588 14.604 160.341 14.4941C160.094 14.3858 159.883 14.2256 159.708 14.0135C159.534 13.803 159.445 13.5375 159.445 13.2171C159.445 12.7518 159.619 12.3734 159.968 12.082C160.318 11.7906 160.791 11.6457 161.387 11.6457C162.042 11.6457 162.631 11.8196 163.154 12.169C163.677 12.5184 164.071 12.9974 164.332 13.6092L165.99 12.8449C165.641 11.8989 165.055 11.1651 164.234 10.6402C163.412 10.1169 162.484 9.85449 161.451 9.85449C160.681 9.85449 159.985 10.001 159.367 10.2908C158.749 10.5823 158.261 10.985 157.906 11.5022C157.549 12.0195 157.372 12.6267 157.372 13.3239C157.372 14.0807 157.616 14.7459 158.103 15.3211C158.589 15.8963 159.357 16.328 160.405 16.6194L162.172 17.1214C162.419 17.1794 162.677 17.2709 162.947 17.3945C163.215 17.5181 163.449 17.6859 163.645 17.8965C163.842 18.107 163.94 18.3877 163.94 18.7371C163.94 19.2314 163.729 19.6312 163.307 19.9378C162.884 20.243 162.361 20.3955 161.735 20.3955C161.023 20.3955 160.374 20.1926 159.793 19.7853C159.212 19.3779 158.752 18.8256 158.418 18.1268L156.781 18.9126C157.16 19.9027 157.785 20.687 158.658 21.2698C159.531 21.8511 160.556 22.1425 161.735 22.1425C162.579 22.1425 163.32 21.9975 163.961 21.7061C164.6 21.4147 165.102 21.0073 165.467 20.484C165.83 19.9607 166.013 19.3718 166.013 18.7173C166.013 17.9026 165.748 17.2038 165.217 16.6225C164.686 16.0412 163.94 15.611 162.98 15.3348H162.982Z" fill="#1E252F"/>
<path d="M177.341 10.654C176.424 10.123 175.391 9.85754 174.242 9.85754C173.093 9.85754 172.082 10.1276 171.165 10.6646C170.248 11.2032 169.52 11.931 168.983 12.8464C168.444 13.7633 168.176 14.81 168.176 15.9893C168.176 17.1687 168.449 18.2229 168.994 19.1536C169.54 20.0843 170.271 20.8151 171.186 21.3461C172.103 21.877 173.121 22.1425 174.24 22.1425C175.36 22.1425 176.375 21.877 177.284 21.3461C178.194 20.8151 178.924 20.0874 179.477 19.1643C180.029 18.2413 180.305 17.1824 180.305 15.9893C180.305 14.7962 180.04 13.742 179.509 12.825C178.978 11.9081 178.255 11.1849 177.338 10.654H177.341ZM177.635 18.1268C177.293 18.7676 176.828 19.2696 176.239 19.6327C175.65 19.9958 174.985 20.1789 174.242 20.1789C173.499 20.1789 172.857 19.9973 172.268 19.6327C171.679 19.2696 171.209 18.7676 170.861 18.1268C170.512 17.4876 170.338 16.7735 170.338 15.9878C170.338 15.2021 170.512 14.4972 170.861 13.8717C171.21 13.2461 171.679 12.7518 172.268 12.3872C172.857 12.024 173.514 11.841 174.242 11.841C174.97 11.841 175.65 12.0225 176.239 12.3872C176.828 12.7503 177.293 13.2461 177.635 13.8717C177.977 14.4972 178.148 15.2021 178.148 15.9878C178.148 16.7735 177.977 17.486 177.635 18.1268Z" fill="#1E252F"/>
<path d="M190.172 10.3702C189.488 10.0284 188.695 9.85754 187.793 9.85754C187.095 9.85754 186.426 9.98113 185.785 10.2283C185.145 10.4755 184.585 10.8142 184.106 11.2429C183.625 11.6716 183.277 12.1568 183.058 12.6938L184.824 13.6108C185.071 13.0585 185.453 12.6069 185.97 12.2575C186.486 11.9081 187.079 11.7342 187.749 11.7342C188.52 11.7342 189.137 11.934 189.604 12.3338C190.07 12.7335 190.303 13.2537 190.303 13.8945V14.4331L186.31 15.0953C185.438 15.2402 184.714 15.4874 184.139 15.8368C183.564 16.1861 183.138 16.6118 182.862 17.1138C182.586 17.6157 182.447 18.1802 182.447 18.8042C182.447 19.4283 182.615 20.037 182.949 20.539C183.283 21.0409 183.749 21.433 184.345 21.7168C184.942 22.0006 185.625 22.1425 186.396 22.1425C187.064 22.1425 187.679 22.0448 188.24 21.848C188.8 21.6512 189.295 21.375 189.725 21.0196C189.97 20.8151 190.183 20.5939 190.369 20.3589V21.8816H192.355V13.8945C192.355 13.1088 192.161 12.41 191.777 11.7998C191.391 11.1895 190.857 10.7119 190.173 10.3702H190.172ZM189.844 18.673C189.539 19.2116 189.113 19.6373 188.567 19.95C188.021 20.2628 187.378 20.4184 186.635 20.4184C186.054 20.4184 185.569 20.2582 185.184 19.9378C184.798 19.6174 184.606 19.2177 184.606 18.7371C184.606 18.2275 184.777 17.8034 185.119 17.4601C185.461 17.1168 186.01 16.8819 186.767 16.7506L190.302 16.1343V16.9032C190.302 17.544 190.149 18.1329 189.844 18.67V18.673Z" fill="#1E252F"/>
<path d="M198.527 10.48C198.092 10.7303 197.742 11.0827 197.479 11.5343V10.12H195.471V21.8816H197.521V14.8771C197.521 13.9312 197.776 13.2049 198.286 12.6954C198.795 12.1858 199.463 11.931 200.293 11.931H201.319V9.98877H200.599C199.784 9.98877 199.093 10.152 198.525 10.48H198.527Z" fill="#1E252F"/>
<path d="M211.959 11.7998C211.573 11.1895 211.039 10.7119 210.355 10.3702C209.672 10.0284 208.879 9.85754 207.977 9.85754C207.278 9.85754 206.61 9.98113 205.969 10.2283C205.328 10.4755 204.768 10.8142 204.289 11.2429C203.809 11.6716 203.461 12.1568 203.241 12.6938L205.008 13.6108C205.255 13.0585 205.636 12.6069 206.154 12.2575C206.669 11.9081 207.263 11.7342 207.933 11.7342C208.703 11.7342 209.321 11.934 209.788 12.3338C210.253 12.7335 210.487 13.2537 210.487 13.8945V14.4331L206.494 15.0953C205.621 15.2402 204.898 15.4874 204.323 15.8368C203.748 16.1861 203.322 16.6118 203.046 17.1138C202.77 17.6157 202.631 18.1802 202.631 18.8042C202.631 19.4283 202.799 20.037 203.133 20.539C203.467 21.0409 203.932 21.433 204.529 21.7168C205.125 22.0006 205.809 22.1425 206.579 22.1425C207.248 22.1425 207.862 22.0448 208.424 21.848C208.984 21.6512 209.478 21.375 209.908 21.0196C210.154 20.8151 210.366 20.5939 210.552 20.3589V21.8816H212.539V13.8945C212.539 13.1088 212.345 12.41 211.961 11.7998H211.959ZM210.029 18.673C209.724 19.2116 209.298 19.6373 208.752 19.95C208.206 20.2628 207.563 20.4184 206.82 20.4184C206.239 20.4184 205.754 20.2582 205.369 19.9378C204.983 19.6174 204.791 19.2177 204.791 18.7371C204.791 18.2275 204.962 17.8034 205.304 17.4601C205.646 17.1168 206.195 16.8819 206.952 16.7506L210.487 16.1343V16.9032C210.487 17.544 210.334 18.1329 210.029 18.67V18.673Z" fill="#1E252F"/>
<path d="M54.0714 14.932H45.1934V17.068H54.0714V14.932Z" fill="#1E252F"/>
<path d="M16.7874 18.8088C15.8857 20.1362 14.363 21.0104 12.6405 21.0104C9.87747 21.0104 7.63012 18.7631 7.63012 16C7.63012 13.237 9.87747 10.9896 12.6405 10.9896C14.363 10.9896 15.8841 11.8638 16.7874 13.1912L18.638 12.1217C17.3626 10.1566 15.1518 8.85364 12.6405 8.85364C8.69963 8.85364 5.49414 12.0591 5.49414 16C5.49414 19.9409 8.69963 23.1464 12.6405 23.1464C15.1518 23.1464 17.3641 21.8434 18.638 19.8783L16.7874 18.8088Z" fill="white"/>
<path d="M29.1054 23.1464C25.1645 23.1464 21.959 19.9409 21.959 16C21.959 12.0591 25.1645 8.85364 29.1054 8.85364C33.0462 8.85364 36.2517 12.0591 36.2517 16C36.2517 19.9409 33.0462 23.1464 29.1054 23.1464ZM29.1054 10.9896C26.3423 10.9896 24.095 13.237 24.095 16C24.095 18.7631 26.3423 21.0104 29.1054 21.0104C31.8684 21.0104 34.1158 18.7631 34.1158 16C34.1158 13.237 31.8684 10.9896 29.1054 10.9896Z" fill="white"/>
</g>
<defs>
<clipPath id="clip0_4640_5099">
<rect width="212.536" height="32" fill="white"/>
</clipPath>
</defs>
</svg>
